<svg width="16" height="18" viewBox="0 0 16 18" fill="none" xmlns="http://www.w3.org/2000/svg">
<g clip-path="url(#clip0_16_68)">
<path d="M7.74638 17.0122C12.0246 17.0122 15.4927 13.425 15.4927 9C15.4927 4.575 12.0246 0.987823 7.74638 0.987823C3.46817 0.987823 0 4.575 0 9C0 13.425 3.46817 17.0122 7.74638 17.0122Z" fill="#E0E0E0"/>
<path d="M7.74639 16.7686C11.9596 16.7686 15.375 13.236 15.375 8.87823C15.375 4.52048 11.9596 0.987823 7.74639 0.987823C3.5332 0.987823 0.117737 4.52048 0.117737 8.87823C0.117737 13.236 3.5332 16.7686 7.74639 16.7686Z" fill="white"/>
<mask id="mask0_16_68" style="mask-type:luminance" maskUnits="userSpaceOnUse" x="2" y="3" width="11" height="12">
<path d="M12.6909 7.95281H7.86409V10.0228H10.6424C10.3834 11.3379 9.30034 12.0928 7.86409 12.0928C6.16883 12.0928 4.80321 10.6804 4.80321 8.92693C4.80321 7.17351 6.16883 5.76103 7.86409 5.76103C8.59399 5.76103 9.25325 6.02892 9.77124 6.46727L11.2781 4.90867C10.3599 4.08066 9.18262 3.56924 7.86409 3.56924C4.99157 3.56924 2.68414 5.95585 2.68414 8.92693C2.68414 11.898 4.99157 14.2846 7.86409 14.2846C10.4541 14.2846 12.8086 12.3364 12.8086 8.92693C12.8086 8.61034 12.7615 8.2694 12.6909 7.95281Z" fill="white"/>
</mask>
<g mask="url(#mask0_16_68)">
<path d="M2.21326 12.0928V5.76102L6.21594 8.92692L2.21326 12.0928Z" fill="#FBBC05"/>
</g>
<mask id="mask1_16_68" style="mask-type:luminance" maskUnits="userSpaceOnUse" x="2" y="3" width="11" height="12">
<path d="M12.6909 7.95281H7.86409V10.0228H10.6424C10.3834 11.3379 9.30034 12.0928 7.86409 12.0928C6.16883 12.0928 4.80321 10.6804 4.80321 8.92693C4.80321 7.17351 6.16883 5.76103 7.86409 5.76103C8.59399 5.76103 9.25325 6.02892 9.77124 6.46727L11.2781 4.90867C10.3599 4.08066 9.18262 3.56924 7.86409 3.56924C4.99157 3.56924 2.68414 5.95585 2.68414 8.92693C2.68414 11.898 4.99157 14.2846 7.86409 14.2846C10.4541 14.2846 12.8086 12.3364 12.8086 8.92693C12.8086 8.61034 12.7615 8.2694 12.6909 7.95281Z" fill="white"/>
</mask>
<g mask="url(#mask1_16_68)">
<path d="M2.21326 5.76103L6.21594 8.92693L7.8641 7.4414L13.515 6.49162V3.08218H2.21326V5.76103Z" fill="#EA4335"/>
</g>
<mask id="mask2_16_68" style="mask-type:luminance" maskUnits="userSpaceOnUse" x="2" y="3" width="11" height="12">
<path d="M12.6909 7.95281H7.86409V10.0228H10.6424C10.3834 11.3379 9.30034 12.0928 7.86409 12.0928C6.16883 12.0928 4.80321 10.6804 4.80321 8.92693C4.80321 7.17351 6.16883 5.76103 7.86409 5.76103C8.59399 5.76103 9.25325 6.02892 9.77124 6.46727L11.2781 4.90867C10.3599 4.08066 9.18262 3.56924 7.86409 3.56924C4.99157 3.56924 2.68414 5.95585 2.68414 8.92693C2.68414 11.898 4.99157 14.2846 7.86409 14.2846C10.4541 14.2846 12.8086 12.3364 12.8086 8.92693C12.8086 8.61034 12.7615 8.2694 12.6909 7.95281Z" fill="white"/>
</mask>
<g mask="url(#mask2_16_68)">
<path d="M2.21326 12.0928L9.27682 6.49162L11.1369 6.73515L13.515 3.08218V14.7717H2.21326V12.0928Z" fill="#34A853"/>
</g>
<mask id="mask3_16_68" style="mask-type:luminance" maskUnits="userSpaceOnUse" x="2" y="3" width="11" height="12">
<path d="M12.6909 7.95281H7.86409V10.0228H10.6424C10.3834 11.3379 9.30034 12.0928 7.86409 12.0928C6.16883 12.0928 4.80321 10.6804 4.80321 8.92693C4.80321 7.17351 6.16883 5.76103 7.86409 5.76103C8.59399 5.76103 9.25325 6.02892 9.77124 6.46727L11.2781 4.90867C10.3599 4.08066 9.18262 3.56924 7.86409 3.56924C4.99157 3.56924 2.68414 5.95585 2.68414 8.92693C2.68414 11.898 4.99157 14.2846 7.86409 14.2846C10.4541 14.2846 12.8086 12.3364 12.8086 8.92693C12.8086 8.61034 12.7615 8.2694 12.6909 7.95281Z" fill="white"/>
</mask>
<g mask="url(#mask3_16_68)">
<path d="M13.5149 14.7717L6.21592 8.92692L5.27411 8.19633L13.5149 5.76102V14.7717Z" fill="#4285F4"/>
</g>
</g>
<defs>
<clipPath id="clip0_16_68">
<rect width="15.4692" height="16.0244" fill="white" transform="translate(0 0.987823)"/>
</clipPath>
</defs>
</svg>
