<svg width="12" height="12" viewBox="0 0 12 12" fill="none" xmlns="http://www.w3.org/2000/svg">
<g clip-path="url(#clip0_39_35)">
<path d="M11.6 11.6L8.40002 8.39999M5.20002 9.99999C4.56968 9.99999 3.94551 9.87584 3.36314 9.63462C2.78078 9.39339 2.25163 9.03983 1.80591 8.59411C1.36019 8.14839 1.00663 7.61924 0.765403 7.03687C0.52418 6.45451 0.400024 5.83034 0.400024 5.19999C0.400024 4.56965 0.52418 3.94548 0.765403 3.36311C1.00663 2.78075 1.36019 2.2516 1.80591 1.80588C2.25163 1.36016 2.78078 1.00659 3.36314 0.765372C3.94551 0.52415 4.56968 0.399994 5.20002 0.399994C6.47306 0.399994 7.69396 0.905707 8.59414 1.80588C9.49431 2.70606 10 3.92695 10 5.19999C10 6.47303 9.49431 7.69393 8.59414 8.59411C7.69396 9.49428 6.47306 9.99999 5.20002 9.99999Z" stroke="#C2C2C7" stroke-width="1.26667"/>
</g>
<defs>
<clipPath id="clip0_39_35">
<rect width="12" height="12" fill="white"/>
</clipPath>
</defs>
</svg>
