<svg width="16" height="17" viewBox="0 0 16 17" fill="none" xmlns="http://www.w3.org/2000/svg">
<path d="M5.86666 7.96668H10.1333V6.90001H5.86666V7.96668ZM10.6667 8.50001V11.7H11.7333V8.50001H10.6667ZM10.1333 12.2333H5.86666V13.3H10.1333V12.2333ZM5.33333 11.7V8.50001H4.26666V11.7H5.33333ZM5.86666 12.2333C5.72521 12.2333 5.58956 12.1772 5.48954 12.0771C5.38952 11.9771 5.33333 11.8415 5.33333 11.7H4.26666C4.26666 12.1244 4.43523 12.5313 4.73529 12.8314C5.03535 13.1314 5.44232 13.3 5.86666 13.3V12.2333ZM10.6667 11.7C10.6667 11.8415 10.6105 11.9771 10.5105 12.0771C10.4104 12.1772 10.2748 12.2333 10.1333 12.2333V13.3C10.5577 13.3 10.9646 13.1314 11.2647 12.8314C11.5648 12.5313 11.7333 12.1244 11.7333 11.7H10.6667ZM10.1333 7.96668C10.2748 7.96668 10.4104 8.02287 10.5105 8.12289C10.6105 8.22291 10.6667 8.35856 10.6667 8.50001H11.7333C11.7333 8.07567 11.5648 7.6687 11.2647 7.36864C10.9646 7.06858 10.5577 6.90001 10.1333 6.90001V7.96668ZM5.86666 6.90001C5.44232 6.90001 5.03535 7.06858 4.73529 7.36864C4.43523 7.6687 4.26666 8.07567 4.26666 8.50001H5.33333C5.33333 8.35856 5.38952 8.22291 5.48954 8.12289C5.58956 8.02287 5.72521 7.96668 5.86666 7.96668V6.90001ZM6.4 7.43335V6.49575H5.33333V7.43335H6.4ZM9.35253 5.27335L9.75573 5.67761L10.5109 4.92241L10.1056 4.51921L9.35253 5.27335ZM8.128 4.76668C8.58666 4.76668 9.02826 4.94801 9.35253 5.27335L10.1056 4.51921C9.84593 4.25946 9.53763 4.05341 9.1983 3.91285C8.85898 3.77229 8.49528 3.69996 8.128 3.70001V4.76668ZM6.4 6.49575C6.4 5.54108 7.17333 4.76668 8.128 4.76668V3.70001C7.38652 3.70001 6.67648 3.99456 6.15218 4.51886C5.62788 5.04317 5.33333 5.75427 5.33333 6.49575H6.4Z" fill="#505051"/>
</svg>
