<svg width="4" height="11" viewBox="0 0 4 11" fill="none" xmlns="http://www.w3.org/2000/svg">
<path d="M2.00001 1.90001C1.89392 1.90001 1.79218 1.85786 1.71716 1.78285C1.64215 1.70783 1.60001 1.60609 1.60001 1.50001C1.60001 1.39392 1.64215 1.29218 1.71716 1.21716C1.79218 1.14215 1.89392 1.10001 2.00001 1.10001C2.10609 1.10001 2.20783 1.14215 2.28285 1.21716C2.35786 1.29218 2.40001 1.39392 2.40001 1.50001C2.40001 1.60609 2.35786 1.70783 2.28285 1.78285C2.20783 1.85786 2.10609 1.90001 2.00001 1.90001ZM2.00001 5.90001C1.89392 5.90001 1.79218 5.85786 1.71716 5.78285C1.64215 5.70783 1.60001 5.60609 1.60001 5.50001C1.60001 5.39392 1.64215 5.29218 1.71716 5.21716C1.79218 5.14215 1.89392 5.10001 2.00001 5.10001C2.10609 5.10001 2.20783 5.14215 2.28285 5.21716C2.35786 5.29218 2.40001 5.39392 2.40001 5.50001C2.40001 5.60609 2.35786 5.70783 2.28285 5.78285C2.20783 5.85786 2.10609 5.90001 2.00001 5.90001ZM2.00001 9.90001C1.89392 9.90001 1.79218 9.85786 1.71716 9.78285C1.64215 9.70783 1.60001 9.60609 1.60001 9.50001C1.60001 9.39392 1.64215 9.29218 1.71716 9.21716C1.79218 9.14215 1.89392 9.10001 2.00001 9.10001C2.10609 9.10001 2.20783 9.14215 2.28285 9.21716C2.35786 9.29218 2.40001 9.39392 2.40001 9.50001C2.40001 9.60609 2.35786 9.70783 2.28285 9.78285C2.20783 9.85786 2.10609 9.90001 2.00001 9.90001Z" stroke="#505051" stroke-width="1.33333"/>
</svg>
